:FULLY-SPECIFIED
:FORCE-ALL-JOINTS-BE-3DOF
:DEGREES
679
root 5.36493 16.1124 0.923099 15.6729 -23.2553 0.0688137
lfemur -37.0718 26.5865 -9.6724
ltibia 106.364 -0 0
lfoot 20.5081 -19.5562 -0.397963
ltoes 11.9742 -0 0
rfemur -38.3953 -11.601 26.1489
rtibia 61.2471 -0 0
rfoot -24.125 -6.10768 -0.000799568
rtoes 0.443157 -0 0
lowerback 0.967898 -6.6567 -0.0437954
upperback -1.87882 -8.87635 0.875566
thorax -2.32414 -4.4278 1.17555
lowerneck -9.38533 -3.6831 0.65343
upperneck 2.47405 -5.11331 2.21319
head 2.45225 -2.46881 0.340435
lclavicle -0 0 0
lhumerus 16.2096 -61.9093 52.9662
lradius 91.7042 -0 0
lwrist 29.77 0 0
lhand -14.3999 -1.237 0.004
lfingers 0 -0 0
lthumb 11.7433 28.4112 0.0033183
rclavicle -0 0 0
rhumerus -46.1291 -9.27253 -44.0808
rradius 77.8201 -0 0
rwrist -21.429 0 0
rhand -26.9856 -47.5649 0.000609369
rfingers 0 -0 0
rthumb -0.406182 -77.544 0.000587677
680
root 5.35757 16.1485 1.05149 15.4457 -24.6551 -0.0188455
lfemur -38.6408 26.5214 -7.68396
ltibia 110.835 0 0
lfoot 23.3716 -22.1735 0
ltoes 13.8335 0 0
rfemur -37.0493 -10.5986 25.6188
rtibia 60.2502 0 0
rfoot -24.182 -5.83958 0
rtoes 0.136471 0 0
lowerback 1.2829 -6.68443 0.0475016
upperback -1.8514 -8.91007 0.842014
thorax -2.48965 -4.4449 1.13259
lowerneck -9.24205 -3.56945 0.702065
upperneck 2.62229 -4.96469 2.15003
head 2.47081 -2.39551 0.320897
lclavicle 1.30303e-13 2.06736e-14 0
lhumerus 18.1137 -60.1086 49.3292
lradius 92.6218 0 0
lwrist 30.0796 0 0
lhand -14.8207 -1.41853 0
lfingers 7.12502 0 0
lthumb 11.3377 28.255 0
rclavicle 1.30303e-13 2.06736e-14 0
rhumerus -45.2935 -8.74488 -42.9472
rradius 79.7625 0 0
rwrist -21.6464 0 0
rhand -26.8969 -47.4337 0
rfingers 7.12502 0 0
rthumb -0.320506 -797.413 0
681
root 5.34616 16.2545 1.19219 15.2017 -26.0075 0.0919946
lfemur -39.6948 26.0037 -4.56147
ltibia 113.644 -0 0
lfoot 22.8561 -21.6844 -0.0132063
ltoes 14.7676 -0 0
rfemur -35.2312 -10.1333 24.8158
rtibia 57.9185 -0 0
rfoot -23.4872 -5.07561 0.027822
rtoes 0.994889 -0 0
lowerback 1.50688 -6.62315 -0.132774
upperback -1.82278 -8.83932 0.617584
thorax -2.59485 -4.40601 1.02613
lowerneck -8.93131 -3.63668 0.632235
upperneck 2.78882 -5.05732 2.37733
head 2.48033 -2.43656 0.405538
lclavicle -0 0 0
lhumerus 21.6115 -57.8835 44.0994
lradius 92.2775 -0 0
lwrist 30.3423 0 0
lhand -15.1899 -1.62228 0.00393954
lfingers 0 -0 0
lthumb 10.9815 28.0686 0.00347773
rclavicle -0 0 0
rhumerus -44.8733 -8.39107 -41.0091
rradius 82.0028 -0 0
rwrist -20.7464 0 0
rhand -27.1272 -46.7909 -0.00775559
rfingers 0 -0 0
rthumb -0.542981 -76.7692 -0.00750303
682
root 5.33475 16.3604 1.33288 14.9518 -27.3594 0.21064
lfemur -40.7741 25.5383 -1.44188
ltibia 116.454 -0 0
lfoot 22.3405 -21.1953 -0.0220116
ltoes 15.7018 -0 0
rfemur -33.4226 -9.64315 24.0293
rtibia 55.5868 -0 0
rfoot -22.792 -4.31136 0.046375
rtoes 1.85331 -0 0
lowerback 1.73063 -6.56118 -0.312785
upperback -1.79444 -8.76847 0.393232
thorax -2.70011 -4.36732 0.919607
lowerneck -8.62047 -3.70353 0.562035
upperneck 2.95501 -5.1506 2.60439
head 2.48979 -2.47762 0.490174
lclavicle -0 0 0
lhumerus 24.5309 -55.5114 39.4278
lradius 91.9331 -0 0
lwrist 30.605 0 0
lhand -15.5591 -1.82605 0.00656602
lfingers 0 -0 0
lthumb 10.6253 27.8821 0.00579632
rclavicle -0 0 0
rhumerus -44.4416 -8.05152 -39.0702
rradius 84.2431 -0 0
rwrist -19.8464 0 0
rhand -27.3577 -46.1481 -0.0129266
rfingers 0 -0 0
rthumb -0.765525 -76.1253 -0.0125056
683
root 5.32334 16.4664 1.47358 14.6956 -28.7109 0.337507
lfemur -41.8758 25.1264 1.67555
ltibia 119.263 -0 0
lfoot 21.8249 -20.7061 -0.0264146
ltoes 16.6359 -0 0
rfemur -31.6236 -9.1289 23.26
rtibia 53.2551 -0 0
rfoot -22.0967 -3.54694 0.055653
rtoes 2.71173 -0 0
lowerback 1.95416 -6.4985 -0.492529
upperback -1.76639 -8.6975 0.168959
thorax -2.80544 -4.32882 0.813017
lowerneck -8.30952 -3.77 0.491467
upperneck 3.12084 -5.24454 2.83122
head 2.49919 -2.5187 0.574807
lclavicle -0 0 0
lhumerus 26.9534 -53.0227 35.23
lradius 91.5888 -0 0
lwrist 30.8677 0 0
lhand -15.9284 -2.02983 0.0078793
lfingers 0 -0 0
lthumb 10.2691 27.6956 0.00695564
rclavicle -0 0 0
rhumerus -43.999 -7.72662 -37.1303
rradius 86.4834 -0 0
rwrist -18.9464 0 0
rhand -27.5881 -45.5053 -0.0155123
rfingers 0 -0 0
rthumb -0.988112 -75.4814 -0.0150071
684
root 5.31192 16.5723 1.61427 14.4325 -30.0618 0.47305
lfemur -42.9972 24.7693 4.79141
ltibia 122.072 -0 0
lfoot 21.3092 -20.2168 -0.0264146
ltoes 17.5701 -0 0
rfemur -29.8343 -8.59114 22.5085
rtibia 50.9234 -0 0
rfoot -21.4012 -2.78247 0.055653
rtoes 3.57014 -0 0
lowerback 2.17747 -6.43514 -0.672002
upperback -1.73862 -8.62643 -0.0552366
thorax -2.91083 -4.29052 0.706361
lowerneck -7.99846 -3.83608 0.420533
upperneck 3.28633 -5.33913 3.0578
head 2.50853 -2.55979 0.659435
lclavicle -0 0 0
lhumerus 28.9519 -50.4415 31.4296
lradius 91.2445 -0 0
lwrist 31.1305 0 0
lhand -16.2976 -2.23362 0.0078793
lfingers 0 -0 0
lthumb 9.91285 27.5092 0.00695564
rclavicle -0 0 0
rhumerus -43.5458 -7.41675 -35.1894
rradius 88.7237 -0 0
rwrist -18.0465 0 0
rhand -27.8186 -44.8625 -0.0155123
rfingers 0 -0 0
rthumb -1.21071 -74.8376 -0.0150071
685
root 5.30051 16.6783 1.75497 14.1619 -31.4122 0.617774
lfemur -44.1353 24.4679 7.90615
ltibia 124.881 -0 0
lfoot 20.7936 -19.7276 -0.0220116
ltoes 18.5042 -0 0
rfemur -28.0547 -8.03051 21.7753
rtibia 48.5917 -0 0
rfoot -20.7059 -2.01805 0.046375
rtoes 4.42856 -0 0
lowerback 2.40054 -6.37107 -0.851204
upperback -1.71115 -8.55525 -0.279355
thorax -3.01629 -4.25241 0.599641
lowerneck -7.6873 -3.90178 0.349235
upperneck 3.45147 -5.43437 3.28414
head 2.51781 -2.60089 0.74406
lclavicle -0 0 0
lhumerus 30.5891 -47.7871 27.9606
lradius 90.9002 -0 0
lwrist 31.3932 0 0
lhand -16.6669 -2.4374 0.00656602
lfingers 0 -0 0
lthumb 9.55663 27.3227 0.00579632
rclavicle -0 0 0
rhumerus -43.0826 -7.12228 -33.2473
rradius 90.964 -0 0
rwrist -17.1465 0 0
rhand -28.049 -44.2197 -0.0129266
rfingers 0 -0 0
rthumb -1.4333 -74.1937 -0.0125056
